<svg xmlns="http://www.w3.org/2000/svg" xml:space="preserve" viewBox="0 0 165 165"><g transform="translate(-30.4 -54.7)"><linearGradient id="a" x1="-26.6" x2="7.3" y1="276.9" y2="237.8" gradientTransform="matrix(2.8346 0 0 -2.8346 150.6 860.4)" gradientUnits="userSpaceOnUse"><stop offset="0" stop-color="#9b58dc"/><stop offset="1" stop-color="#321c92"/></linearGradient><linearGradient id="b" x1="-26.6" x2="7.3" y1="276.9" y2="237.8" gradientTransform="matrix(2.8346 0 0 -2.8346 150.6 860.4)" gradientUnits="userSpaceOnUse"><stop offset="0" stop-color="#9b58dc"/><stop offset="1" stop-color="#321c92"/></linearGradient><path fill="url(#a)" stroke="url(#b)" stroke-miterlimit="11.3" stroke-width=".4" d="M142.5 211.5a13642.3 13642.3 0 0 1-104.8-58c-6.3-3.5-7.3-4.3-7.3-6.4 0-1.1 2.5-8.1 8.5-23.5a8140 8140 0 0 0 9.1-23.5c.9-2 2.2-3.6 3.6-4.3C52.9 94.9 84.4 83.4 86 83c1.7-.4 3.2.4 4.1 2.3.4.9 2.2 5.5 3.9 10.3l5.7 15.6c3.3 8.8 3.4 10.1 1.1 11.4-.6.4-4.5 1.9-8.7 3.4a88.5 88.5 0 0 0-8.8 3.5c-1.6.9-1.8 2.4-.6 3.5.5.5 8.5 5 17.8 10.2 26 14.3 24.6 13.7 26.3 11.8.9-.9 16.4-40.4 17.3-44 .4-1.5.3-1.7-.5-2.4-1.1-.9-.9-.9-11.2 2.7-10.1 3.6-11.1 3.7-12.4 1-.7-1.4-11.6-31.3-12.3-33.7-.4-1.6.1-3 1.4-3.9.5-.4 8.5-3.4 17.6-6.8 13.6-5 17-6.1 18.8-6.1 2.3 0 2.6.1 44.3 23.2 2.9 1.6 4.4 3.3 4.4 4.8 0 .6-10.4 28.1-23 61.1a1072.4 1072.4 0 0 1-24 60.8c-1.1 1.2-2.2 1.2-4.7-.2z"/></g></svg>